<svg xmlns="http://www.w3.org/2000/svg" viewBox="0 0 400 300" width="100%" height="100%">
  <defs>
    <linearGradient id="bgGrad" x1="0%" y1="0%" x2="100%" y2="100%">
      <stop offset="0%" stop-color="#1e1b4b" />
      <stop offset="100%" stop-color="#090514" />
    </linearGradient>
    <filter id="shadow" x="-10%" y="-10%" width="120%" height="130%">
      <feDropShadow dx="0" dy="10" stdDeviation="6" flood-opacity="0.3" />
    </filter>
  </defs>
  <rect width="400" height="300" rx="24" fill="url(#bgGrad)" />
  <g filter="url(#shadow)" transform="translate(50, 40)">
    <path d="M 50,150 C 50,50 180,50 180,110 C 180,170 80,180 80,130 C 80,90 150,90 150,120 C 150,150 110,150 110,135" fill="none" stroke="#6366f1" stroke-width="8" stroke-linecap="round" stroke-dasharray="8 4"/>
    <path d="M 120,160 C 120,60 250,60 250,120 C 250,180 150,190 150,140 C 150,100 220,100 220,130 C 220,160 180,160 180,145" fill="none" stroke="#10b981" stroke-width="8" stroke-linecap="round"/>
    <g transform="translate(130, 160) rotate(45)">
      <rect x="0" y="0" width="16" height="32" rx="8" fill="#e2e8f0" stroke="#94a3b8" stroke-width="2"/>
      <line x1="0" y1="16" x2="16" y2="16" stroke="#94a3b8" stroke-width="2"/>
    </g>
    <g transform="translate(200, 130) rotate(-30)">
      <rect x="0" y="0" width="16" height="32" rx="8" fill="#e2e8f0" stroke="#94a3b8" stroke-width="2"/>
      <line x1="0" y1="16" x2="16" y2="16" stroke="#94a3b8" stroke-width="2"/>
    </g>
  </g>
</svg>