<svg xmlns="http://www.w3.org/2000/svg" viewBox="0 0 400 300" width="100%" height="100%">
  <defs>
    <linearGradient id="bgGrad" x1="0%" y1="0%" x2="100%" y2="100%">
      <stop offset="0%" stop-color="#3b0764" />
      <stop offset="100%" stop-color="#581c87" />
    </linearGradient>
    <linearGradient id="primaryGrad" x1="0%" y1="0%" x2="100%" y2="100%">
      <stop offset="0%" stop-color="#1c1917" />
      <stop offset="100%" stop-color="#000000" />
    </linearGradient>
    <linearGradient id="soleGrad" x1="0%" y1="0%" x2="100%" y2="0%">
      <stop offset="0%" stop-color="#ea580c" />
      <stop offset="100%" stop-color="#FE6C20" />
    </linearGradient>
    <filter id="shadow" x="-10%" y="-10%" width="120%" height="130%">
      <feDropShadow dx="0" dy="12" stdDeviation="8" flood-opacity="0.35" />
    </filter>
  </defs>
  <rect width="400" height="300" rx="24" fill="url(#bgGrad)" />
  <ellipse cx="200" cy="242" rx="140" ry="10" fill="#000000" opacity="0.3" filter="blur(5px)" />
  <g filter="url(#shadow)" transform="translate(10, 15)">
    <path d="M 85,95 Q 75,80 82,75 Q 88,72 90,85 Z" fill="#f97316" />
    <path d="M 90,95 C 80,120 82,185 110,195 C 140,195 250,190 310,185 C 335,183 345,172 340,158 C 330,140 310,125 280,120 C 240,115 200,90 170,88 C 145,86 125,88 110,90 C 98,92 92,92 90,95 Z" fill="url(#primaryGrad)" />
    <path d="M 115,102 Q 150,105 180,135 T 270,140 Q 200,165 130,170 Z" fill="#44403c" opacity="0.85" />
    <path d="M 145,130 Q 210,120 270,140 Q 185,150 150,145 Z" fill="#f97316" />
    <circle cx="280" cy="155" r="2" fill="#ffffff" opacity="0.5" />
    <circle cx="290" cy="160" r="2" fill="#ffffff" opacity="0.5" />
    <circle cx="300" cy="163" r="2" fill="#ffffff" opacity="0.5" />
    <circle cx="270" cy="158" r="2" fill="#ffffff" opacity="0.5" />
    <circle cx="280" cy="167" r="2" fill="#ffffff" opacity="0.5" />
    <path d="M 145,108 L 165,120 M 158,98 L 180,110 M 172,90 L 195,100" stroke="#ffffff" stroke-width="2.5" stroke-linecap="round" opacity="0.9" />
    <path d="M 98,192 C 120,192 270,185 315,182 Q 335,180 342,175 L 340,185 Q 330,195 315,200 L 260,205 Q 200,212 140,212 L 100,206 Q 90,202 98,192 Z" fill="url(#soleGrad)" />
    <path d="M 130,200 Q 170,198 210,203 L 205,208 Q 165,203 132,205 Z" fill="#f97316" />
    <path d="M 240,199 Q 260,198 280,200 L 278,204 Q 258,202 240,203 Z" fill="#111111" opacity="0.3" />
    <path d="M 103,205 L 315,198 Q 325,198 322,204 L 260,211 Q 200,218 140,217 Z" fill="#111111" />
  </g>
</svg>