<svg xmlns="http://www.w3.org/2000/svg" viewBox="0 0 400 300" width="100%" height="100%">
  <defs>
    <linearGradient id="bgGrad" x1="0%" y1="0%" x2="100%" y2="100%">
      <stop offset="0%" stop-color="#090d16" />
      <stop offset="100%" stop-color="#1e293b" />
    </linearGradient>
    <filter id="shadow" x="-10%" y="-10%" width="120%" height="130%">
      <feDropShadow dx="0" dy="10" stdDeviation="6" flood-opacity="0.3" />
    </filter>
  </defs>
  <rect width="400" height="300" rx="24" fill="url(#bgGrad)" />
  <g filter="url(#shadow)" transform="translate(40, 20)">
    <path d="M 140,60 L 180,60 L 180,160 L 230,200 L 210,225 L 140,170 Z" fill="#dddddd" opacity="0.6"/>
    <path d="M 140,75 H 180" stroke="#ef4444" stroke-width="4"/>
    <path d="M 140,85 H 180" stroke="#3b82f6" stroke-width="4"/>
    <g transform="translate(30, 20)">
      <path d="M 140,60 L 180,60 C 185,120 185,150 180,165 L 235,210 C 245,218 240,230 225,230 L 205,230 L 145,180 C 138,160 138,120 140,60 Z" fill="#ffffff" />
      <path d="M 142,165 C 145,178 155,182 155,182 L 145,180 Z" fill="#64748b" opacity="0.3"/>
      <path d="M 235,210 C 240,215 238,225 225,230 L 220,220 Z" fill="#64748b" opacity="0.3"/>
      <path d="M 140,75 H 180" stroke="#ef4444" stroke-width="5"/>
      <path d="M 140,87 H 180" stroke="#3b82f6" stroke-width="5"/>
      <circle cx="160" cy="120" r="8" fill="none" stroke="#ef4444" stroke-width="2"/>
      <path d="M 156,120 Q 160,118 164,120" stroke="#ef4444" stroke-width="2"/>
    </g>
  </g>
</svg>