<svg xmlns="http://www.w3.org/2000/svg" viewBox="0 0 400 300" width="100%" height="100%">
  <defs>
    <linearGradient id="bgGrad" x1="0%" y1="0%" x2="100%" y2="100%">
      <stop offset="0%" stop-color="#06201a" />
      <stop offset="100%" stop-color="#0f172a" />
    </linearGradient>
    <filter id="shadow" x="-10%" y="-10%" width="120%" height="130%">
      <feDropShadow dx="0" dy="10" stdDeviation="6" flood-opacity="0.3" />
    </filter>
  </defs>
  <rect width="400" height="300" rx="24" fill="url(#bgGrad)" />
  <g filter="url(#shadow)" transform="translate(20, 20)">
    <g transform="translate(60, 140) rotate(-10)">
      <rect x="10" y="35" width="130" height="25" fill="#cda275" rx="2" />
      <line x1="20" y1="35" x2="20" y2="60" stroke="#78350f" stroke-width="2"/>
      <line x1="40" y1="35" x2="40" y2="60" stroke="#78350f" stroke-width="2"/>
      <line x1="60" y1="35" x2="60" y2="60" stroke="#78350f" stroke-width="2"/>
      <line x1="80" y1="35" x2="80" y2="60" stroke="#78350f" stroke-width="2"/>
      <line x1="100" y1="35" x2="100" y2="60" stroke="#78350f" stroke-width="2"/>
      <line x1="120" y1="35" x2="120" y2="60" stroke="#78350f" stroke-width="2"/>
      <rect x="0" y="10" width="150" height="25" fill="#f59e0b" rx="5" stroke="#d97706" stroke-width="2"/>
      <path d="M 20,20 Q 75,15 130,20" stroke="#ffffff" stroke-width="1" opacity="0.3" fill="none"/>
    </g>
    <g transform="translate(200, 30)">
      <rect x="25" y="60" width="70" height="130" rx="15" fill="#ffffff" stroke="#e2e8f0" stroke-width="2"/>
      <path d="M 26,110 Q 60,105 94,110 V 175 C 94,183 88,189 80,189 H 40 C 32,189 26,183 26,175 Z" fill="#06b6d4" opacity="0.25"/>
      <rect x="30" y="80" width="60" height="60" rx="5" fill="#0f172a"/>
      <text x="60" y="115" font-family="sans-serif" font-weight="bold" font-size="12" fill="#ffffff" text-anchor="middle">SHOE</text>
      <text x="60" y="130" font-family="sans-serif" font-weight="normal" font-size="9" fill="#06b6d4" text-anchor="middle">CLEANER</text>
      <rect x="45" y="40" width="30" height="20" fill="#cbd5e1"/>
      <path d="M 40,25 C 40,15 50,10 60,10 C 70,10 90,15 90,25 C 90,30 85,40 40,40 Z" fill="#94a3b8"/>
      <rect x="85" y="20" width="10" height="8" rx="2" fill="#475569"/>
    </g>
  </g>
</svg>