<svg xmlns="http://www.w3.org/2000/svg" viewBox="0 0 400 300" width="100%" height="100%">
  <defs>
    <linearGradient id="bgGrad" x1="0%" y1="0%" x2="100%" y2="100%">
      <stop offset="0%" stop-color="#0c0a09" />
      <stop offset="100%" stop-color="#1c1917" />
    </linearGradient>
    <linearGradient id="primaryGrad" x1="0%" y1="0%" x2="100%" y2="100%">
      <stop offset="0%" stop-color="#111827" />
      <stop offset="100%" stop-color="#000009" />
    </linearGradient>
    <filter id="shadow" x="-10%" y="-10%" width="120%" height="130%">
      <feDropShadow dx="0" dy="15" stdDeviation="10" flood-opacity="0.4" />
    </filter>
  </defs>
  <rect width="400" height="300" rx="24" fill="url(#bgGrad)" />
  <ellipse cx="200" cy="245" rx="145" ry="12" fill="#000000" opacity="0.35" filter="blur(6px)" />
  <g filter="url(#shadow)" transform="translate(10, 10)">
    <path d="M 95,115 C 80,80 110,60 135,65 C 150,68 145,95 130,115 Z" fill="#1f2937" />
    <path d="M 100,115 C 85,130 90,195 115,200 C 145,200 250,200 305,200 C 325,200 338,190 335,170 C 330,150 310,130 280,120 C 255,110 215,95 175,90 C 150,86 132,100 120,112 Z" fill="url(#primaryGrad)" />
    <path d="M 100,115 C 90,135 95,180 118,188 C 135,188 150,140 130,115 Z" fill="#111111" opacity="0.4" />
    <path d="M 280,125 C 300,135 328,155 330,172 C 325,185 305,195 285,195 C 275,175 270,145 280,125 Z" fill="#1f2937" opacity="0.9" />
    <path d="M 118,80 Q 140,82 155,100 L 145,108 Q 130,92 115,92 Z" fill="#06b6d4" />
    <path d="M 145,155 Q 210,150 260,135 Q 200,175 150,170 Z" fill="#06b6d4" />
    <rect x="125" y="202" width="40" height="10" fill="#ffffff" opacity="0.1" />
    <path d="M 160,110 L 185,122 M 172,98 L 198,110 M 185,88 L 210,100" stroke="#ffffff" stroke-width="3" stroke-linecap="round" />
    <path d="M 105,195 C 120,195 280,196 308,196 Q 322,196 328,190 L 332,198 Q 325,210 308,212 L 110,212 Q 98,205 105,195 Z" fill="#0891b2" />
    <path d="M 112,212 L 308,212 Q 315,212 315,217 L 115,217 Z" fill="#222222" />
  </g>
</svg>