<svg xmlns="http://www.w3.org/2000/svg" viewBox="0 0 400 300" width="100%" height="100%">
  <defs>
    <linearGradient id="bgGrad" x1="0%" y1="0%" x2="100%" y2="100%">
      <stop offset="0%" stop-color="#1e1b4b" />
      <stop offset="100%" stop-color="#312e81" />
    </linearGradient>
    <linearGradient id="primaryGrad" x1="0%" y1="0%" x2="100%" y2="100%">
      <stop offset="0%" stop-color="#f8fafc" />
      <stop offset="100%" stop-color="#DADCDE" />
    </linearGradient>
    <filter id="shadow" x="-10%" y="-10%" width="120%" height="130%">
      <feDropShadow dx="0" dy="12" stdDeviation="8" flood-opacity="0.3" />
    </filter>
  </defs>
  <rect width="400" height="300" rx="24" fill="url(#bgGrad)" />
  <ellipse cx="200" cy="235" rx="130" ry="12" fill="#000000" opacity="0.25" filter="blur(4px)" />
  <g filter="url(#shadow)" transform="translate(10, 15)">
    <path d="M 100,105 Q 92,90 98,85 Q 102,82 106,92 Z" fill="#fbbf24" />
    <path d="M 125,100 Q 155,95 185,130 L 195,130 Q 155,80 120,95 Z" fill="#222222" opacity="0.8" />
    <path d="M 100,105 C 90,130 95,190 120,200 C 150,200 240,200 300,200 C 320,200 330,190 325,175 C 320,160 305,145 280,140 C 250,135 220,120 185,115 C 165,110 145,102 125,100 C 112,100 105,102 100,105 Z" fill="url(#primaryGrad)" />
    <path d="M 100,105 C 92,125 96,160 115,170 C 130,150 140,110 125,100 Z" fill="#e2e8f0" opacity="0.9" />
    <path d="M 285,142 C 305,148 322,162 325,175 C 322,185 310,195 290,195 Q 280,170 285,142 Z" fill="#e2e8f0" />
    <path d="M 130,165 Q 190,160 250,145 Q 190,180 135,178 Z" fill="#fbbf24" />
    <path d="M 155,122 L 175,135 M 165,112 L 188,125 M 175,105 L 198,116" stroke="#ffffff" stroke-width="3" stroke-linecap="round" opacity="0.9" />
    <path d="M 105,195 C 120,195 280,195 305,195 Q 318,195 322,190 L 325,197 Q 322,207 305,207 L 108,207 Q 100,202 105,195 Z" fill="#ffffff" />
    <path d="M 110,207 L 305,207 Q 312,207 312,212 L 115,212 Z" fill="#111111" opacity="0.4" />
  </g>
</svg>