<svg xmlns="http://www.w3.org/2000/svg" viewBox="0 0 400 300" width="100%" height="100%">
  <defs>
    <linearGradient id="bgGrad" x1="0%" y1="0%" x2="100%" y2="100%">
      <stop offset="0%" stop-color="#0b1329" />
      <stop offset="100%" stop-color="#111827" />
    </linearGradient>
    <filter id="shadow" x="-10%" y="-10%" width="120%" height="130%">
      <feDropShadow dx="0" dy="10" stdDeviation="6" flood-opacity="0.25" />
    </filter>
  </defs>
  <rect width="400" height="300" rx="24" fill="url(#bgGrad)" />
  <path d="M 100,50 L 95,65 M 200,40 L 195,55 M 300,60 L 295,75 M 150,100 L 145,115" stroke="#0284c7" stroke-width="2" stroke-linecap="round" opacity="0.4"/>
  <g filter="url(#shadow)" transform="translate(20, 20)">
    <ellipse cx="180" cy="225" rx="125" ry="8" fill="#000000" opacity="0.2" filter="blur(4px)" />
    <path d="M 90,140 C 80,100 110,80 130,80 L 160,82 C 200,95 240,110 280,135 C 305,150 310,180 290,195 C 270,205 240,205 180,205 C 120,205 100,190 90,140 Z" fill="#ffffff" fill-opacity="0.4" stroke="#ffffff" stroke-width="3"/>
    <path d="M 130,80 L 160,82" stroke="#0284c7" stroke-width="4" stroke-linecap="round"/>
    <path d="M 120,200 H 260" stroke="#0284c7" stroke-width="4" stroke-dasharray="10 6"/>
    <path d="M 230,120 Q 235,135 235,140" fill="none" stroke="#0284c7" stroke-width="2" stroke-linecap="round"/>
    <circle cx="235" cy="143" r="2" fill="#0284c7"/>
  </g>
</svg>